<svg width="30" height="30" viewBox="0 0 30 30" fill="none" xmlns="http://www.w3.org/2000/svg">
<g clip-path="url(#clip0)">
<path d="M28.8281 13.8281H4.0103L8.12147 9.73687C8.5802 9.28031 8.58196 8.53834 8.12539 8.0796C7.66883 7.62082 6.9268 7.61912 6.46807 8.07562L0.344788 14.1694C0.344378 14.1697 0.344085 14.1701 0.343733 14.1705C-0.113825 14.627 -0.11529 15.3714 0.343616 15.8295C0.344026 15.8299 0.344319 15.8303 0.344671 15.8306L6.46795 21.9244C6.92662 22.3808 7.66865 22.3792 8.12528 21.9204C8.58184 21.4616 8.58008 20.7197 8.12135 20.2631L4.0103 16.1719H28.8281C29.4754 16.1719 30 15.6472 30 15C30 14.3528 29.4754 13.8281 28.8281 13.8281Z" fill="#ACACAC"/>
</g>
<defs>
<clipPath id="clip0">
<rect width="30" height="30" fill="white"/>
</clipPath>
</defs>
</svg>
